<svg width="50" height="35" viewBox="0 0 50 35" fill="none" xmlns="http://www.w3.org/2000/svg">
<path fill-rule="evenodd" clip-rule="evenodd" d="M19.0294 0.670517C18.1439 -0.223505 16.7045 -0.223505 15.8191 0.670517L0.667614 15.8879C-0.222538 16.7772 -0.222538 18.2228 0.667614 19.1121L15.8191 34.3295C16.7045 35.2235 18.1439 35.2235 19.0294 34.3295C19.9195 33.4402 19.9195 31.9946 19.0294 31.1053L7.76042 19.7826H32.5758C34.7396 19.7826 38.0303 20.4531 40.7197 22.3981C43.2907 24.2575 45.4545 27.3723 45.4545 32.7174C45.4545 33.9776 46.4725 35 47.7273 35C48.982 35 50 33.9776 50 32.7174C50 25.8886 47.1165 21.3947 43.3712 18.6889C39.7491 16.0686 35.464 15.2174 32.5758 15.2174L7.76042 15.2174L19.0294 3.8947C19.9195 3.00544 19.9195 1.55978 19.0294 0.670517Z" fill="#1C274C"/>
</svg>
