<svg width="50" height="35" viewBox="0 0 50 35" fill="none" xmlns="http://www.w3.org/2000/svg">
<path fill-rule="evenodd" clip-rule="evenodd" d="M30.9688 0.668575C31.8564 -0.222861 33.2952 -0.222861 34.1828 0.668575L49.3343 15.886C50.2219 16.7774 50.2219 18.2225 49.3343 19.1139L34.1828 34.3314C33.2952 35.2228 31.8564 35.2228 30.9688 34.3314C30.0813 33.44 30.0813 31.9947 30.9688 31.1033L42.2404 19.7826H17.4243C15.2627 19.7826 11.9697 20.4528 9.28253 22.396C6.71116 24.2553 4.54546 27.3744 4.54546 32.7174C4.54546 33.978 3.52791 35 2.27273 35C1.01755 35 0 33.978 0 32.7174C0 25.8865 2.88479 21.3968 6.62659 18.6909C10.2525 16.0689 14.5353 15.2173 17.4243 15.2173L42.2404 15.2173L30.9688 3.8965C30.0813 3.00506 30.0813 1.56001 30.9688 0.668575Z" fill="#1C274C"/>
</svg>
